<svg width="16" height="20" viewBox="0 0 16 20" fill="none" xmlns="http://www.w3.org/2000/svg">
<path d="M4.66671 5.83366H11.3334M4.66671 9.16699H8.83337M8.83337 17.917V16.5003C8.83337 15.1002 8.83337 14.4001 9.10586 13.8653C9.34554 13.3949 9.72799 13.0125 10.1984 12.7728C10.7332 12.5003 11.4332 12.5003 12.8334 12.5003H14.25M14.6667 11.6768V5.66699C14.6667 4.26686 14.6667 3.5668 14.3942 3.03202C14.1545 2.56161 13.7721 2.17916 13.3017 1.93948C12.7669 1.66699 12.0668 1.66699 10.6667 1.66699H5.33337C3.93324 1.66699 3.23318 1.66699 2.6984 1.93948C2.22799 2.17916 1.84554 2.56161 1.60586 3.03202C1.33337 3.5668 1.33337 4.26686 1.33337 5.66699V14.3337C1.33337 15.7338 1.33337 16.4339 1.60586 16.9686C1.84554 17.439 2.22799 17.8215 2.6984 18.0612C3.23318 18.3337 3.93324 18.3337 5.33337 18.3337H8.00985C8.62133 18.3337 8.92707 18.3337 9.21479 18.2646C9.46988 18.2033 9.71374 18.1023 9.93742 17.9653C10.1897 17.8107 10.4059 17.5945 10.8383 17.1621L13.4951 14.5052C13.9275 14.0729 14.1437 13.8567 14.2983 13.6044C14.4354 13.3807 14.5364 13.1368 14.5976 12.8817C14.6667 12.594 14.6667 12.2883 14.6667 11.6768Z" stroke="white" stroke-width="2" stroke-linecap="round"/>
</svg>
